<svg xmlns="http://www.w3.org/2000/svg"><symbol id="logo" viewBox="0 0 222.5 232.2"><path fill="none" stroke="#231f20" stroke-linecap="round" stroke-miterlimit="10" stroke-width="4.1" d="M48.3 160.6c4.1-58.4 32.6-65.5 32.6-65.5C77.7 83.3 87 63 87 63c14.8 17.1 13.1 31 13.1 31a133 133 0 0 1 31.7-.7A69.8 69.8 0 0 1 144.3 63c6.1 12.8 7.8 32.1 7.8 32.1 11.7 11 22.4 46.3 21 61.6"/><path fill="none" stroke="#231f20" stroke-linecap="round" stroke-miterlimit="10" stroke-width="2.78" d="M88.1 128.5c-47.4-11.7-64.2-1.8-64.2-1.8m64.2 8.2c-16.2-5.3-52.6 0-52.6 0m101.1-6.8c47.4-11.6 64.2-1.8 64.2-1.8m-64.2 8.2c16.2-5.3 52.6 0 52.6 0"/><ellipse cx="93.4" cy="114.2" fill="none" stroke="#231f20" stroke-miterlimit="10" stroke-width="2.78" rx="10.8" ry="4.9"/><ellipse cx="130.2" cy="114.2" fill="none" stroke="#231f20" stroke-miterlimit="10" stroke-width="2.78" rx="9.7" ry="4.9"/><ellipse cx="93.4" cy="114.2" fill="#231f20" rx="3.7" ry="4.9"/><ellipse cx="130.2" cy="114.2" fill="#231f20" rx="3.7" ry="4.9"/><path fill="#231f20" d="M112.2 76a2.4 2.4 0 0 0 4.1-.1c1.9-3 5.1-5.7 7.2-7.6 5.4-5.1 19.7-12.4 15.4-22.2s-19.9-7.6-22.2 1.8c-1.1-5.6-4-10.5-11.3-10.5-10.9 0-17.3 11-5 23.1 4.1 4 8.9 10.9 11.8 15.5z"/><path d="M42.2 197a1.2 1.2 0 0 1-.4.8 2.6 2.6 0 0 1-1.7.9c-3.1.3-5.7-.4-7.4-1.9a5.2 5.2 0 0 1-2-4.7c.3-1.7 1.5-3.3 3.5-4.9l1.5-1.1a33.3 33.3 0 0 1-3.2-2.6A20.2 20.2 0 0 1 31 182a69.3 69.3 0 0 1-6.9 2.6c-1.6.6-2.9.3-3.6-.7s-.8-1.8.1-2.3l1-.4a55.8 55.8 0 0 0 6.5-2.1l-.9-1c-.4-.5-.6-.9-.5-1.2a1 1 0 0 1 .6-.9 2.1 2.1 0 0 1 1.5-.3 5.5 5.5 0 0 1 1.5 1.1l.9 1.1a25.8 25.8 0 0 0 5.4-2.8c.7-.5 1.1-.9 1.2-1.3a1.2 1.2 0 0 0-.2-1c-.8-.9-2.5-1.3-5.2-1.4a1.2 1.2 0 0 1-.9-.3.9.9 0 0 1-.1-.7 1.6 1.6 0 0 1 .7-.7 3.6 3.6 0 0 1 1.9-.4 13.4 13.4 0 0 1 4 .6 7.4 7.4 0 0 1 3 1.9 2.6 2.6 0 0 1 .6 2.6 5.5 5.5 0 0 1-2.3 3 28.9 28.9 0 0 1-5.4 3.3c.6.7 1.3 1.3 1.9 1.9s1.6 1.5 2.3 2a54.8 54.8 0 0 1 5.3-2.8 17.1 17.1 0 0 1 4.9-1.3 3.9 3.9 0 0 1 3.3.7 2 2 0 0 1 .8 2 4.6 4.6 0 0 1-1.3 2.6c-3 3.4-7 4.3-11.8 2.3l-1.8 1.5a7.5 7.5 0 0 0-2.6 3.2 2.3 2.3 0 0 0 .8 2.3 5.3 5.3 0 0 0 2.1 1.1 12 12 0 0 0 3.3 0l.9.2a.7.7 0 0 1 .2.6zm6.1-14.1a18.7 18.7 0 0 0-3 1.4 24 24 0 0 0-3.7 2.2 6.8 6.8 0 0 0 4.2.3 8.4 8.4 0 0 0 3.7-2.5l.6-.8c0-.3 0-.5-.2-.6a2.1 2.1 0 0 0-1.6 0z"/><path d="M37.7 199.5a4 4 0 0 1 1.5-3 8.7 8.7 0 0 1 3.8-2.3 10.7 10.7 0 0 1 4.3-.6 7.1 7.1 0 0 1 3.7 1.2.8.8 0 0 1 .5.7c.1.2 0 .4-.2.8l1.1.6c.7.5.9 1 .5 1.5l-2 2a29.1 29.1 0 0 0-3.3 3c-.2.2-.3.4-.2.6a.7.7 0 0 0 .3.6 2.5 2.5 0 0 0 1.6.2 20.7 20.7 0 0 0 3.2-.6 1.4 1.4 0 0 1 .9.1.9.9 0 0 1 .3.6 1.9 1.9 0 0 1-.3.9 2.2 2.2 0 0 1-1.5 1 12.2 12.2 0 0 1-3.7.5 4.8 4.8 0 0 1-3-.8 2.8 2.8 0 0 1-1.1-1.5 3.4 3.4 0 0 1 0-2 5.3 5.3 0 0 1-4.8-.7 3.5 3.5 0 0 1-1.6-2.8zm5.9 1.7a7.5 7.5 0 0 0 2-1l4.1-3.2a4.1 4.1 0 0 0-2.3-.6 5.8 5.8 0 0 0-2.8.7 7.4 7.4 0 0 0-2.5 1.7 1.7 1.7 0 0 0-.6 1.2 1.2 1.2 0 0 0 .6.9 1.7 1.7 0 0 0 1.5.3z"/><path d="M49.8 208a5.6 5.6 0 0 1 1.2-3.2l2.2-2.4L56 200a2.4 2.4 0 0 1 1.3-.7 2.4 2.4 0 0 1 1.3.4c.8.5 1.1.9.8 1.5s-1 1.2-2.3 2.4a23.3 23.3 0 0 0-2.9 3 3.1 3.1 0 0 0-.5 1.2c0 .3.2.5.5.7a2.6 2.6 0 0 0 1.6.1l3.1-.8a1.4 1.4 0 0 1 .9 0 1.3 1.3 0 0 1 .4.6 1.9 1.9 0 0 1-.3.9 2.7 2.7 0 0 1-1.4 1.2q-4.5 1.4-6.9 0a2.9 2.9 0 0 1-1.8-2.5zm9.1-10.9a2.2 2.2 0 0 1 .3-1.5 2.4 2.4 0 0 1 1.6-.9 2 2 0 0 1 1.8.3 1.9 1.9 0 0 1 1.1 1.1 1.4 1.4 0 0 1-.2 1.5 2.3 2.3 0 0 1-1.5 1.2 2.7 2.7 0 0 1-1.9-.4 1.9 1.9 0 0 1-1.2-1.3z"/><path d="M56.1 211.7a9.4 9.4 0 0 1 1.5-3.2 22.1 22.1 0 0 1 4.4-5.2 3.1 3.1 0 0 1 1.4-.7 3.7 3.7 0 0 1 1.6.4c.3.2.5.3.6.5a.4.4 0 0 1 0 .5 11.4 11.4 0 0 1-1.4 1.6l-1.3 1.4-1.3 1.7a27.1 27.1 0 0 1 3.8-2.5 11.5 11.5 0 0 1 3.1-.9 4.7 4.7 0 0 1 2.1.2 1.5 1.5 0 0 1 .9 2.3l-.9 1.4a5.8 5.8 0 0 0-.8 1.2c-.3.6-.2 1 .3 1.1a3.7 3.7 0 0 0 2.4-.3 1 1 0 0 1 .9-.1.8.8 0 0 1 .5.5 2.5 2.5 0 0 1-.1.8 2.2 2.2 0 0 1-1.2 1.3 8.4 8.4 0 0 1-2.4.6 5.5 5.5 0 0 1-2.5-.4 3.1 3.1 0 0 1-1.9-1.6 2.3 2.3 0 0 1 .2-2.1l.4-.7.4-.6c.1-.3.1-.4-.1-.5a2.4 2.4 0 0 0-1.5.3l-2.4 1.6a26.1 26.1 0 0 0-2.7 2.2 3.2 3.2 0 0 1-1.6 1.2 2.2 2.2 0 0 1-1.5-.3 1.5 1.5 0 0 1-.9-1.7z"/><path d="M81.9 216.5a1.4 1.4 0 0 1 0 .9 2.8 2.8 0 0 1-1 1.5 13.8 13.8 0 0 1-3.6 1.5 7.1 7.1 0 0 1-3.8-.2 4 4 0 0 1-3-3.3 10.3 10.3 0 0 1 1-5.7 54.4 54.4 0 0 1 3.8-6.7 34.3 34.3 0 0 1 4.9-6c1.6-1.6 3-2.2 4.3-1.9a1.9 1.9 0 0 1 1.4 1.7 7.5 7.5 0 0 1-.3 3.5 17.2 17.2 0 0 1-3.8 6.7 29.7 29.7 0 0 1-7.7 6.6 3.1 3.1 0 0 0 .1 1.7 1.6 1.6 0 0 0 1 .8 3.9 3.9 0 0 0 2.4 0 14.5 14.5 0 0 0 2.9-1.4 1.8 1.8 0 0 1 .9-.2c.3.1.5.2.5.5zm-.6-15.7c-1 1.3-2 3-3.2 4.9a53.5 53.5 0 0 0-2.9 5.9 28 28 0 0 0 5.2-5.1 18.7 18.7 0 0 0 2.9-5.3c.4-1.3.3-2-.1-2.1s-1 .5-1.9 1.7z"/><path d="M93.5 218.7a1.7 1.7 0 0 1 0 1 2.7 2.7 0 0 1-.8 1.6 15.2 15.2 0 0 1-3.6 1.7 11.1 11.1 0 0 1-4.8.1 7 7 0 0 1-4.5-2.7 4.7 4.7 0 0 1-.4-4.5 7.5 7.5 0 0 1 1.8-3.1 8 8 0 0 1 3-1.9 5.6 5.6 0 0 1 3.4-.2 3.6 3.6 0 0 1 2.3 1.4 3.4 3.4 0 0 1 .5 2.7 4.7 4.7 0 0 1-2.1 2.9 11.2 11.2 0 0 1-5.5 1 3 3 0 0 0 2.5 1.8 7.6 7.6 0 0 0 3.3-.2 8.4 8.4 0 0 0 3.4-1.7l.9-.3zm-9.1-4.8a5.9 5.9 0 0 0-1.4 2.6h-.1a6.7 6.7 0 0 0 3-.5 2.1 2.1 0 0 0 1.4-1.5 1.4 1.4 0 0 0-.1-.9.8.8 0 0 0-.7-.4 2.3 2.3 0 0 0-2.1.7z"/><path d="M93.5 224.6a1.7 1.7 0 0 1-.6-1.5 2 2 0 0 1 .8-1.2 4.2 4.2 0 0 1 1.8-.3l.9.2.8.2a3.4 3.4 0 0 0-.2-1.4 6.7 6.7 0 0 0-.6-1.2l-.8-1.2a13.1 13.1 0 0 1-2.2 2.4 14.6 14.6 0 0 1-2.4 1.7 1.4 1.4 0 0 1-1.2.3 1 1 0 0 1-.8-.4 1.1 1.1 0 0 1-.1-.8 1.5 1.5 0 0 1 .6-1l.5-.3a31.2 31.2 0 0 0 3-2.6l1.5-1.9 1.6-2.6a2.4 2.4 0 0 1 2.4-.9l1 .2a.5.5 0 0 1 .3.5l-.2.5-.4.6a3.5 3.5 0 0 0-.6 1.6 1.3 1.3 0 0 0 .2 1 7.6 7.6 0 0 0 .8 1.3l1.3 2a3.8 3.8 0 0 1 .3 1.8 2.8 2.8 0 0 1-.1.8 9.1 9.1 0 0 0 3.6-2.6 1.2 1.2 0 0 1 .9-.4c.2 0 .4.2.6.4a2 2 0 0 1 .2.9 2.5 2.5 0 0 1-.6 1.7 7.7 7.7 0 0 1-3.1 2.1 9.8 9.8 0 0 1-3.6.5 5.4 5.4 0 0 1-3.1.6 4.4 4.4 0 0 1-2.5-1z"/><path d="M107.1 225.6a1.8 1.8 0 0 1-.9-1.5 2.3 2.3 0 0 1 .6-1.2 3 3 0 0 1 1.8-.5h1.7a3.5 3.5 0 0 0-.3-1.4 9.4 9.4 0 0 0-.9-1.2l-.9-1a15.8 15.8 0 0 1-1.8 2.7l-2.1 1.9a1.6 1.6 0 0 1-1.3.4 1.1 1.1 0 0 1-.8-.3 1.9 1.9 0 0 1-.2-.8 1.4 1.4 0 0 1 .5-1l.4-.4a26.3 26.3 0 0 0 2.6-2.9 11.8 11.8 0 0 0 1.1-1.9l1.5-2.9a2 2 0 0 1 2.1-1.2 1.7 1.7 0 0 1 1.1.1c.2.1.3.2.3.4a1.1 1.1 0 0 1-.1.5 1.4 1.4 0 0 1-.2.7 3.2 3.2 0 0 0-.5 1.7 1.6 1.6 0 0 0 .3.9l1 1.2a20.2 20.2 0 0 1 1.6 1.9 4.9 4.9 0 0 1 .6 1.7 4.2 4.2 0 0 1-.5 2.2 4 4 0 0 1-1.7 1.7 4.9 4.9 0 0 1-2.5.7 3.7 3.7 0 0 1-2.5-.5zm28.8-10c.4 1.3-.6 2.4-3 2.9l-2.1.2c.5 1.1 1 2.2 1.5 3.5s.9 2.4 1.2 3.2a7.1 7.1 0 0 1 0 4.6 3.9 3.9 0 0 1-2.8 2.2c-1.6.3-3-.5-4-2.2a24.5 24.5 0 0 1-2.4-8.1 46.5 46.5 0 0 1-.6-10.6 34.1 34.1 0 0 1 1.3-9.3q1.1-3.7 3-4.2a2.3 2.3 0 0 1 2 .7 6.7 6.7 0 0 1 1.4 2.8c1.2 4.1.3 9.3-4.1 15.2a45.2 45.2 0 0 0 .7 4.6c.4 1.8.9 3.7 1.4 5.6s1.1 2.8 1.4 2.7.8-1.1.4-2.9a35.6 35.6 0 0 0-1.3-3.9c-.5-1.3-1.1-2.6-1.8-4a3.4 3.4 0 0 1 .1-.9 5.4 5.4 0 0 1 .5-1.1c.2-.3.4-.5.6-.5l1.4-.2h.6a14.4 14.4 0 0 0 2.5-.8l.4-.2h.6c.5-.4.9-.1 1.1.7zm-8.5-13.2c-.1 1.2-.3 2.7-.3 4.5a58 58 0 0 0 0 5.9 16.5 16.5 0 0 0 2.1-5.7 10.9 10.9 0 0 0-.1-5.1c-.2-1.1-.6-1.5-1-1.5s-.5.7-.7 1.9z"/><path d="M135.8 221.3a8.7 8.7 0 0 1-1.5-3.2 22.6 22.6 0 0 1-.8-6.8 2.1 2.1 0 0 1 .5-1.3 2.3 2.3 0 0 1 1.4-.7c.4-.1.6-.2.8-.1s.3.2.4.4a18 18 0 0 1 .2 2c0 .7.1 1.4.1 1.9a17.7 17.7 0 0 0 .4 2 16.5 16.5 0 0 1 .8-4.2 7.1 7.1 0 0 1 1.5-2.6 3.8 3.8 0 0 1 1.7-1.2 1.6 1.6 0 0 1 2.3 1 9.4 9.4 0 0 1 .5 1.7 4 4 0 0 0 .3 1.3c.2.6.6.8 1 .7s1.1-.8 1.5-1.9.3-.5.6-.6a.6.6 0 0 1 .7.1 1 1 0 0 1 .5.6 2.1 2.1 0 0 1 .2 1.7 5.9 5.9 0 0 1-1.3 1.9 4.8 4.8 0 0 1-2 1.4 3.9 3.9 0 0 1-2.6.1 2.6 2.6 0 0 1-1.5-1.6 2.4 2.4 0 0 1-.2-.8l-.2-.7c-.1-.3-.3-.4-.5-.3a2 2 0 0 0-.7 1.2 9 9 0 0 0-.6 2.7 17.6 17.6 0 0 0-.1 3.3 4.2 4.2 0 0 1-.2 1.8 1.6 1.6 0 0 1-1.3.8 1.7 1.7 0 0 1-1.9-.6z"/><path d="M149.6 216.8a6 6 0 0 1-2.2-2.7 15 15 0 0 1-1-3 28.3 28.3 0 0 1-.7-3.6 2.1 2.1 0 0 1 .1-1.4 1.9 1.9 0 0 1 1.1-.7c.9-.4 1.4-.3 1.7.2a28.3 28.3 0 0 1 .9 3.1 23.6 23.6 0 0 0 1.2 3.9 1.7 1.7 0 0 0 .8 1 .8.8 0 0 0 .9.1c.4-.1.7-.5 1-1.1a18.6 18.6 0 0 0 .9-2.8.9.9 0 0 1 .6-.7h.7a2.2 2.2 0 0 1 .6.7 2.3 2.3 0 0 1 .4 1.7c-.7 2.8-2 4.6-3.7 5.3a3.8 3.8 0 0 1-3.3 0zm-4.8-13.1a1.9 1.9 0 0 1-1.1-1.2 1.7 1.7 0 0 1 0-1.7 2.1 2.1 0 0 1 1.4-1.2 2.3 2.3 0 0 1 1.6-.2 2.1 2.1 0 0 1 1.3 2.8 2.3 2.3 0 0 1-1.4 1.3 2.4 2.4 0 0 1-1.8.2z"/><path d="M165.8 203.5a1.9 1.9 0 0 1 .7.6 2.9 2.9 0 0 1 .6 1.6 9.2 9.2 0 0 1-1.4 3.5 8.5 8.5 0 0 1-3.4 3.1 7.4 7.4 0 0 1-5.4 1 5.8 5.8 0 0 1-3.7-3 7.2 7.2 0 0 1-.9-3.4 7.3 7.3 0 0 1 .8-3.3 6.6 6.6 0 0 1 2.4-2.3 4.5 4.5 0 0 1 2.8-.4 3.6 3.6 0 0 1 2.2 1.7 3.5 3.5 0 0 1 .6 3.4c-.3 1.2-1.4 2.6-3.3 4.1a3.6 3.6 0 0 0 3.3-.2 6.1 6.1 0 0 0 2.2-2.3 7.9 7.9 0 0 0 1.3-3.3 1 1 0 0 1 .4-.8zm-10.3 2.2a5.2 5.2 0 0 0 .8 2.8 7.5 7.5 0 0 0 1.9-2.2 2.3 2.3 0 0 0-.1-2 1.3 1.3 0 0 0-.7-.6 1.5 1.5 0 0 0-.9.2 1.9 1.9 0 0 0-1 1.8z"/><path d="M167.2 208.2a9.6 9.6 0 0 1-2.5-2.5 20.3 20.3 0 0 1-3-6.1 1.7 1.7 0 0 1 0-1.4 2.9 2.9 0 0 1 1.1-1.1l.7-.3a.5.5 0 0 1 .5.3 6.9 6.9 0 0 1 .9 1.8 15.9 15.9 0 0 0 .8 1.8l1 1.7a17.6 17.6 0 0 1-.6-4.2 7.9 7.9 0 0 1 .5-2.9 3.4 3.4 0 0 1 1.2-1.6 1.8 1.8 0 0 1 2.6.2 25.7 25.7 0 0 1 2.2 3.3 11.2 11.2 0 0 0 1.7 2.6c.5.6 1 .7 1.4.3s.6-.7.7-1.4a18.5 18.5 0 0 0 .2-2.9 1.1 1.1 0 0 1 .3-.8.8.8 0 0 1 .7-.1c.3 0 .5.2.8.5a1.9 1.9 0 0 1 .8 1.5 10.2 10.2 0 0 1-.4 3.5 5.9 5.9 0 0 1-2.2 2.8 3.6 3.6 0 0 1-2.5.8 3.4 3.4 0 0 1-2.2-1.3 14.3 14.3 0 0 1-1.4-2.3 13.8 13.8 0 0 0-1.3-2c-.2-.3-.4-.3-.5-.2s-.3.6-.3 1.3a10.3 10.3 0 0 0 .4 2.7 18.6 18.6 0 0 0 1 3.1 4.1 4.1 0 0 1 .5 1.8 1.7 1.7 0 0 1-1 1.1 1.7 1.7 0 0 1-2.1 0z"/><path d="M188.5 184.3a1.6 1.6 0 0 1 .9.4 2 2 0 0 1 1 1.3 9.8 9.8 0 0 1 .1 3.4 4.6 4.6 0 0 1-1.3 2.8 4.4 4.4 0 0 1-4.5 1 6.2 6.2 0 0 1-.1 2.8 5.8 5.8 0 0 1-1.4 1.9 4.3 4.3 0 0 1-3.3 1.1 4.6 4.6 0 0 1-3.3-1.5 8.4 8.4 0 0 1-2.1-3.5 8.6 8.6 0 0 1-.2-3.9 8 8 0 0 1 1.8-3.4 35.2 35.2 0 0 1-5.4-7.4c-1.2-2.3-1.3-3.9-.4-4.9a2.2 2.2 0 0 1 2-.5 6.3 6.3 0 0 1 3 1.6 22.3 22.3 0 0 1 4.7 5.5 36.5 36.5 0 0 1 3.8 8.2 6.3 6.3 0 0 0 2.1 1 1.4 1.4 0 0 0 1.3-.3 2.6 2.6 0 0 0 .7-1.6 20.2 20.2 0 0 0-.3-2.9.9.9 0 0 1 .9-1.1zm-6 9.9a5.3 5.3 0 0 0-.2-2 11.7 11.7 0 0 1-2.7-2 8.1 8.1 0 0 1-1.6-1.4 4.1 4.1 0 0 0-.4 3.1 5.4 5.4 0 0 0 1.7 3c1 .9 1.9 1.1 2.6.4a2 2 0 0 0 .6-1.1zm-9.6-16a27.4 27.4 0 0 0 3.1 3.8 45.7 45.7 0 0 0 4.4 4.4c-2-4.3-4.1-7.2-6.2-9l-1.3-.9c-.4-.2-.6-.2-.7-.1s0 .8.7 1.8z"/><path d="M194.1 186.8a2.1 2.1 0 0 1-1.8-.2 1.2 1.2 0 0 1-.7-1.1 2.1 2.1 0 0 1 .7-1.5 1.9 1.9 0 0 1 .6-.7l.6-.6a3.3 3.3 0 0 0-1.4-.4h-3a15.3 15.3 0 0 1 1.1 2.9 21.9 21.9 0 0 1 .4 2.7 1.5 1.5 0 0 1-.4 1.1 1.2 1.2 0 0 1-.8.4l-.9-.2a1.4 1.4 0 0 1-.5-1 4.3 4.3 0 0 1-.1-.5 31.1 31.1 0 0 0-.9-3.6 10.7 10.7 0 0 0-.9-1.9l-1.6-2.7a1.9 1.9 0 0 1 .4-2.3l.8-.8h.6l.4.4.4.6a2.9 2.9 0 0 0 1.1 1.3 1.2 1.2 0 0 0 .9.3h4.3a4.1 4.1 0 0 1 1.9.5 5.7 5.7 0 0 1 1.6 1.5 4.1 4.1 0 0 1 .4 2.2 4.3 4.3 0 0 1-1 2.2 4 4 0 0 1-2.2 1.4z"/><path fill="none" stroke="#000" stroke-linecap="round" stroke-miterlimit="10" stroke-width="6" d="M201.7 170.6l.3-.4"/><path fill="none" stroke="#000" stroke-dasharray=".99 13.93" stroke-linecap="round" stroke-miterlimit="10" stroke-width="6" d="M209.4 158.4c7.3-14 10.1-28.6 10.1-47.1a108.3 108.3 0 1 0-204.4 49.8"/><path fill="none" stroke="#000" stroke-linecap="round" stroke-miterlimit="10" stroke-width="6" d="M18.5 167.2l.3.4"/></symbol><symbol id="facebook" viewBox="0 0 222.1 222.5"><path d="M111 221.6c-23.8 0-47.7-.6-71.5.2-21.1.8-39.6-18-39.5-39.6L.6 79.7c.1-13 0-25.9.1-38.9C.9 16 17.8-.1 42.6 0 89 .2 135.5.1 182 .1c14.8 0 26.7 6 34.2 18.7 3.3 5.7 5.6 12.8 5.6 19.3.5 47.9.3 95.9.1 143.9-.1 19.1-10.7 33.8-28.1 39.3a29.2 29.2 0 0 1-8.8 1.2h-74zM97.1 112.7h23.3v88.5h39.5v-88.7h26.5V82.6h-26.8c0-2.4-.1-4.2 0-6 .3-12.7 3.9-16.3 16.6-16.4h10.5V30.1c-12.7.8-25.1.4-37.1 2.5-17.8 3.2-27.5 15.2-28.9 33.3-.4 5.4-.1 10.9-.1 17H97.1z"/></symbol><symbol id="donation-cat" viewBox="0 0 538.5 306.8"><path fill="#231f20" d="M369.8 93.3c-38.4 2.5-57.9 37.1-72.5 68.3-3.9 8.2-7.6 16.5-11.7 24.7s-7.8 15.6-8.7 24.7c-1.6 17.1 8 32.4 20.6 43.1 15.5 13.2 35.4 21.6 55.3 25.7 3.1.6 4.5-4.2 1.3-4.8a127.2 127.2 0 0 1-46.8-19.6c-13.2-9.2-25.3-22.9-25.5-39.8-.2-9 3.1-16.9 7.1-24.8s6.8-14.1 10.1-21.2c7-15.1 14.2-30.5 24.3-43.9 11.4-15.2 27-26.2 46.5-27.4 3.2-.2 3.2-5.2 0-5z"/><path fill="#231f20" d="M320.7 233.7c7.6 13.3 23 17.4 36 9.1 2.7-1.7.2-6.1-2.5-4.3-10.7 6.9-22.9 3.7-29.2-7.3-1.6-2.8-5.9-.3-4.3 2.5zM320 204c6.6-4.5 19.9-11 22.9.6.8 3.1 5.6 1.8 4.8-1.4-3.9-15.3-20.7-10.1-30.2-3.5-2.6 1.8-.1 6.2 2.5 4.3zm51.1-107.8c1-8.5 6.7-14.3 11-21.2s7-13.2 11.5-19.3c9.8-13.2 21.2-25.1 30.4-38.6l-4.6-.6c2.6 12.6 8 24.8 8.9 37.7s-3.7 26.9-2.8 40.5c.2 3.2 5.2 3.2 5 0-.9-14.2 4.1-28 2.7-42.2s-6.4-24.8-9-37.3c-.4-2.3-3.4-2.3-4.5-.6-9.9 14.5-22.5 27-32.5 41.5-4.6 6.6-7.6 14-12.3 20.5s-7.9 12-8.8 19.6c-.4 3.2 4.6 3.1 5 0z"/><path fill="#231f20" d="M409.1 100.1c14.6-2.9 30.9-4.5 42.7 6.5a2.5 2.5 0 0 0 3.5 0c24.5-19.8 49.6-41 81.4-47.1l-3.2-2.4c-1.7 16.9-3.3 33.8-4.9 50.7s-5.5 32.4-8.4 48.8c-2.6 14 2.9 27.4 5.2 41.1 2.7 15.6 1.7 32.7.8 48.4-.5 9.4-1.2 18.9-3.7 28s-7.3 15.3-8.9 23.7c-.6 3.2 4.2 4.5 4.8 1.4 1.4-7.6 5.9-14 8.2-21.3s3.1-14.4 3.8-21.7a336.4 336.4 0 0 0 .9-50.2c-.7-14.6-7.5-28.6-6.9-43.3.4-8.2 3.1-16.6 4.8-24.6a193.2 193.2 0 0 0 3.6-22.6c2-19.5 3.7-39 5.7-58.4.2-1.7-1.7-2.7-3.1-2.4-32.7 6.2-58.5 28-83.6 48.4h3.5c-13.2-12.3-31-11.1-47.5-7.8-3.2.6-1.9 5.4 1.3 4.8zm19.1 61.2c-7.8-6.9-25.4-10.8-34.7-4.8s-6.1 20.1 3.1 24.8 24.8 9.8 33.5 3.1 5-20.3-1.9-26.8c-2.3-2.2-5.8 1.3-3.5 3.5 4.9 4.6 8.9 16.1 1.1 20.1s-17.8-.5-24.2-3.1c-3.7-1.6-7.5-3.6-8.6-7.8a8.4 8.4 0 0 1 4.8-10.3c7.6-3.1 20.9-.5 26.9 4.9 2.4 2.1 6-1.4 3.5-3.6z"/><path fill="#231f20" d="M405.4 157.6c-6.8-.9-11.5 8-5.9 12.6s11.7-1.2 11.7-6.9a6.2 6.2 0 0 0-4.5-6.2 5.3 5.3 0 0 0-5.9 3.1c-2.5 4.8-.8 11.8 5.5 12s9.2-9.3 5.8-14.1c-1.9-2.6-6.2-.1-4.3 2.5s1.5 6.8-1.5 6.6c-1.3-.1-1.5-.9-1.6-2.1s.7-2.3 1.1-3.3-.3-.2 0 .3a2.1 2.1 0 0 1 .4 1.2 4.1 4.1 0 0 1-2.1 3.4 1.7 1.7 0 0 1-2.1-2c.2-1.7 2-2.3 3.4-2.1s2.5-1.3 2.5-2.5a2.5 2.5 0 0 0-2.5-2.5zm-63-14c-5.2-12.8-35.3-13.8-37 2.2-.8 8.4 8 13.8 14.7 16.3s16.5 3.4 21.9-3.3a14.7 14.7 0 0 0-1.6-19.8c-6.3-5.9-18.9-5.8-21.5 3.9-2 7.8 5.4 13.5 12.4 9.6s7.5-14.8-.3-17.8-12.6 10.4-5.5 14.1a6.6 6.6 0 0 0 7.7-.9c3-2.9 1.2-7.2-.8-10.1s-6.2-.1-4.4 2.5c.8 1 3.3 4.5.5 4.3s-1.7-5 .3-5.3c3.9-.6 2.8 6.5 1.3 8s-4.8 2.4-6.2.2c-3.2-5 4.8-8.3 8.4-7.4a10.6 10.6 0 0 1 6.6 4.9 9.3 9.3 0 0 1-3.4 12.8c-6.9 3.9-27.3-2.3-24.9-12.3 1.3-5.7 8.2-6.4 13-6.2s12.1 1.1 14 5.7c1.2 2.9 6 1.6 4.8-1.4zM306 200.2c-10.5-16.2-30.5-24.9-47.4-32.8-21.6-10.1-44.9-15.5-67.6-22.5-3.1-.9-4.4 3.9-1.4 4.8 21.7 6.7 44.1 11.8 64.8 21.2 8.5 3.9 16.9 8.2 25 12.8s16.9 10.6 22.3 19c1.8 2.7 6.1.2 4.3-2.5zm.4-16.3c-7.8-9.5-15-19.5-24.8-27.2s-23.4-12.9-34.4-20.6c-2.6-1.8-5.1 2.5-2.5 4.4 10.5 7.3 22.7 11.8 33 19.5s17.3 17.8 25.2 27.4c2 2.5 5.5-1 3.5-3.5zm77.2 29.9c21 .2 42.1 1.5 62.9 5.1s41.2 9.3 57.7 21.9c2.6 2 5-2.4 2.5-4.3-16.8-12.9-38.4-18.7-58.9-22.4s-42.7-5.1-64.2-5.3c-3.2-.1-3.2 4.9 0 5zm7.6 13.4c32.2 11.7 73.8 16.7 94.8 47 1.8 2.6 6.2.1 4.3-2.5-22-31.7-64-37.1-97.8-49.3-3-1.1-4.3 3.7-1.3 4.8zM87 159.5c-16.9-.9-39.1 3.3-50.6 17-14.1 16.8-.2 38 17.1 45.3s39.3 6.8 58.7 6.6 41.9-.3 59.2 11.1c22.8 14.8 27.4 43.4 38.8 66 1.5 2.9 5.8.4 4.3-2.5-9.3-18.6-13.8-39.7-27.3-56-12-14.6-29.4-20.8-47.7-22.7s-38.5.1-57.7-1.4c-9.5-.7-19.7-2.2-28.3-6.5S35.6 203 35.4 192.3c-.4-22.8 34.7-28.7 51.6-27.8 3.2.2 3.2-4.8 0-5z"/><path fill="#231f20" d="M91.9 160.2c-.7-3.6-2.7-11.8 3-12s9.3 2.6 13.1 4.5c13.2 6.7 26.3 12.8 40.1 18.3 29.6 11.6 59.4 27.8 83.9 48.3 13 10.8 24.5 23.6 31.2 39.2 1.3 3 5.6.4 4.4-2.5-13.3-30.9-44-51.2-72-67.3a376.3 376.3 0 0 0-50.4-24.2 252.8 252.8 0 0 1-27.6-12.4 132.6 132.6 0 0 0-14.7-7.1c-4.1-1.6-9.7-3.2-13.5-.1S86 156.4 87 161.5c.6 3.2 5.5 1.8 4.9-1.3zm-6.1 11.4c-3.9-.1-8.1.6-9.4 4.8s-1.1 8.7.1 11.6 1.9 2.8 1 4.6-1.9 1.6-2.5 2.4-1.6 4-1.7 6.3c-.2 4 .7 8.4 3.5 11.4 6.3 6.8 18.1 4.5 25.5 1.1 10.1-4.7 17-15.9 13.2-27s-17.8-15.3-29-17.5c-3.2-.7-4.5 4.2-1.3 4.8 9.4 1.9 22.6 4 25.7 14.7 3.9 13.2-9.3 22.1-20.8 23.1-3.8.3-8.2-.1-10.4-3.6a11 11 0 0 1-1.4-6.4c.1-3.4 1.6-4.1 3.5-6.6s.9-5.3-.4-8.8c-.8-2-.5-4.4-.4-6.6s1.5-3.4 4.8-3.3 3.2-4.9 0-5z"/><path fill="#231f20" d="M101.7 159.6c-1 1.6-2 3.4-1.4 5.4s4 3.5 6.4 4.2a2.5 2.5 0 0 0 3-1.8 6.7 6.7 0 0 0 .2-4.2c-.3-1-.8-2-1.2-3-1-3.1-5.8-1.8-4.8 1.3s1.6 2.8 1 4.6l3.1-1.7a14.5 14.5 0 0 1-2.5-.9l-.4-.3c-.3-.1.2.1 0 .1l-.2-.2h.1c-.1-.1 0 0 .1.3v.2c.1-.3 0 .2 0 .3s.2-.7 0-.2a5.9 5.9 0 0 1 1-1.7 2.6 2.6 0 0 0-.9-3.4 2.7 2.7 0 0 0-3.5.9zm-38.1 16.9c-5.9-2.2-11.5-1-13.9 5.2-.5 1 .3 2.2 1.1 2.8 2.9 2 6.4 3.1 9.8 2.2s5.8-3.8 7.1-7.1-3.6-4.3-4.8-1.3c-1.8 4.5-6 4.4-9.6 1.9l1.2 2.8c1.4-3.5 4.9-2.7 7.8-1.7s4.3-3.7 1.3-4.8zm-4.2 20.7a13.5 13.5 0 0 0-8.6-2.6 2.4 2.4 0 0 0-2.2 1.2 13.5 13.5 0 0 0-1.3 7.1 2.6 2.6 0 0 0 1.9 2.4c5.1 1.5 11.1.9 13.5-4.6 1.2-3-3.1-5.5-4.3-2.6s-4.7 3.3-7.9 2.4l1.8 2.4a8.5 8.5 0 0 1 .6-4.5l-2.1 1.2a8.7 8.7 0 0 1 6 2c2.7 1.9 5.2-2.5 2.6-4.4zm5.9 9.3c-2 .1-4.1-.1-6 .8s-2.9 2.8-3.6 4.8a2.6 2.6 0 0 0 1.2 2.8c2 1.2 4.3 2.1 6.6 1.4s3.5-2.6 4.8-4.3-1.5-6-3.5-3.5c-.8.9-1.6 2.3-2.6 2.9s-2-.3-2.8-.8l1.2 2.8c.2-.9.5-1.6 1.3-1.7s2.3-.1 3.4-.2c3.3 0 3.3-5 0-5z"/><path fill="#e59900" d="M40 85.7v17.2c36 18.3 71.4 3.4 73.9 2.5l.5-19.7"/><ellipse cx="77.2" cy="85.4" fill="#ffce31" rx="37.2" ry="11.4"/><path fill="#e59900" d="M111.7 36.2l-4.4 16.7c30.2 26.8 68.2 21.2 70.8 21.1l5.6-19"/><ellipse cx="147.7" cy="45.3" fill="#ffce31" rx="11.4" ry="37.2" transform="rotate(-75.3 147.768 45.252)"/><path fill="#e59900" d="M.5 35.7L8 51.2c40.4.8 65.7-28.1 67.6-30L67.5 3.3"/><ellipse cx="33.8" cy="19.2" fill="#ffce31" rx="37.2" ry="11.4" transform="rotate(-25.8 33.958 19.266)"/></symbol><symbol id="insta" viewBox="0 0 221 222.4"><path d="M220.7 114.1c0 20 .9 40.1-.2 60-1.7 29.9-20.2 47.6-50 48-39.9.6-79.9.3-119.9 0C33 222 18 215.7 8 200.4a46.6 46.6 0 0 1-7.8-25.5c-.2-41.3-.4-82.7.2-124C.7 26.3 13.9 8.7 35.1 2.8A85.4 85.4 0 0 1 55.9.1c35.8-.2 71.6-.1 107.4.1a101.7 101.7 0 0 1 19.9 1.9c20.2 3.8 36.2 20.9 37 41.6 1 23.4.3 46.9.3 70.4zm-111.8 80.2v-1.4c12.4 0 24.7.5 37-.1 25.4-1.2 43.7-16.9 44.9-40.8 1.4-27.2 1.3-54.6.1-81.8-.9-21.8-17.4-38.5-39.1-39.7a776.8 776.8 0 0 0-77.8-.6c-25.5 1.1-42.1 15-43.8 38.2a644.7 644.7 0 0 0-.2 86.8c1.2 20.7 16 34.2 36.6 37 14 1.9 28.2 1.7 42.3 2.4z"/><path d="M110.1 178.3c-11.5 0-23 .3-34.5-.1-20.1-.6-31.2-10.1-32-30.1-1-25.5-.5-51 .6-76.4.8-16.8 13-27.3 29.8-27.6q35.3-.6 70.5-.1c19.7.2 31.6 10.3 32.4 29.9 1 25.4.7 50.9-.5 76.4-.9 17.5-12.3 27.3-29.9 27.9-12.1.4-24.3.1-36.4.1zm-.1-25.1c23 0 42.1-18.8 42.2-41.6s-18.5-42.5-41.8-42.5a42.2 42.2 0 0 0-42.2 41.7c-.1 23.6 18.4 42.4 41.8 42.4zM163.9 67c-.1-4.9-4.9-9.4-9.9-9.4a10.2 10.2 0 0 0-9.6 9.7 9.8 9.8 0 0 0 10.1 9.6 10 10 0 0 0 9.4-9.9z"/><path d="M82.7 111c.2-15.7 12.6-27.9 28-27.6s27.3 12.7 27 27.6-12.4 28.1-27.7 27.9A27.5 27.5 0 0 1 82.7 111z"/></symbol><symbol id="button" viewBox="0 0 508 257"><path fill="#ded8cc" d="M241.4 8.6L507.2 257H204.6L6.8 88.7 241.4 8.6z"/><rect width="245.1" height="90.76" fill="#8ebbbc" rx="17.6"/><circle cx="200.6" cy="45.4" r="25.6" fill="#6c8c8d"/><path fill="#fff" d="M195.1 33.6v24.2l15.5-12.4-15.5-11.8z"/></symbol></svg>